<mxfile host="app.diagrams.net" modified="2023-02-07T17:00:28.928Z" agent="5.0 (Windows NT 10.0; Win64; x64) AppleWebKit/537.36 (KHTML, like Gecko) Chrome/109.0.0.0 Safari/537.36" etag="WZ_omXjXUm4AvLWONOVl" version="20.8.16" type="github">
  <diagram id="C5RBs43oDa-KdzZeNtuy" name="Page-1">
    <mxGraphModel dx="924" dy="826" grid="1" gridSize="10" guides="1" tooltips="1" connect="1" arrows="1" fold="1" page="1" pageScale="1" pageWidth="827" pageHeight="1169" math="0" shadow="0">
      <root>
        <mxCell id="WIyWlLk6GJQsqaUBKTNV-0" />
        <mxCell id="WIyWlLk6GJQsqaUBKTNV-1" parent="WIyWlLk6GJQsqaUBKTNV-0" />
        <mxCell id="dqx_c1S0qKRoPGkQ0xFw-1" value="MainWindow.xaml" style="swimlane;fontStyle=1;align=center;verticalAlign=top;childLayout=stackLayout;horizontal=1;startSize=26;horizontalStack=0;resizeParent=1;resizeParentMax=0;resizeLast=0;collapsible=1;marginBottom=0;" parent="WIyWlLk6GJQsqaUBKTNV-1" vertex="1">
          <mxGeometry x="110" y="140" width="180" height="86" as="geometry" />
        </mxCell>
        <mxCell id="dqx_c1S0qKRoPGkQ0xFw-3" value="" style="line;strokeWidth=1;fillColor=none;align=left;verticalAlign=middle;spacingTop=-1;spacingLeft=3;spacingRight=3;rotatable=0;labelPosition=right;points=[];portConstraint=eastwest;strokeColor=inherit;" parent="dqx_c1S0qKRoPGkQ0xFw-1" vertex="1">
          <mxGeometry y="26" width="180" height="8" as="geometry" />
        </mxCell>
        <mxCell id="xigRl2_YlhpQburxAAua-4" value="+ startButton_Click(): void" style="text;strokeColor=none;fillColor=none;align=left;verticalAlign=top;spacingLeft=4;spacingRight=4;overflow=hidden;rotatable=0;points=[[0,0.5],[1,0.5]];portConstraint=eastwest;" vertex="1" parent="dqx_c1S0qKRoPGkQ0xFw-1">
          <mxGeometry y="34" width="180" height="26" as="geometry" />
        </mxCell>
        <mxCell id="xigRl2_YlhpQburxAAua-5" value="+ exitButton_Click(): void" style="text;strokeColor=none;fillColor=none;align=left;verticalAlign=top;spacingLeft=4;spacingRight=4;overflow=hidden;rotatable=0;points=[[0,0.5],[1,0.5]];portConstraint=eastwest;" vertex="1" parent="dqx_c1S0qKRoPGkQ0xFw-1">
          <mxGeometry y="60" width="180" height="26" as="geometry" />
        </mxCell>
        <mxCell id="dqx_c1S0qKRoPGkQ0xFw-9" value="Question" style="swimlane;fontStyle=1;align=center;verticalAlign=top;childLayout=stackLayout;horizontal=1;startSize=26;horizontalStack=0;resizeParent=1;resizeParentMax=0;resizeLast=0;collapsible=1;marginBottom=0;" parent="WIyWlLk6GJQsqaUBKTNV-1" vertex="1">
          <mxGeometry x="30" y="370" width="210" height="112" as="geometry" />
        </mxCell>
        <mxCell id="dqx_c1S0qKRoPGkQ0xFw-10" value="+ Text: string" style="text;strokeColor=none;fillColor=none;align=left;verticalAlign=top;spacingLeft=4;spacingRight=4;overflow=hidden;rotatable=0;points=[[0,0.5],[1,0.5]];portConstraint=eastwest;" parent="dqx_c1S0qKRoPGkQ0xFw-9" vertex="1">
          <mxGeometry y="26" width="210" height="26" as="geometry" />
        </mxCell>
        <mxCell id="dqx_c1S0qKRoPGkQ0xFw-25" value="+ Answers: List&lt;string&gt;" style="text;strokeColor=none;fillColor=none;align=left;verticalAlign=top;spacingLeft=4;spacingRight=4;overflow=hidden;rotatable=0;points=[[0,0.5],[1,0.5]];portConstraint=eastwest;" parent="dqx_c1S0qKRoPGkQ0xFw-9" vertex="1">
          <mxGeometry y="52" width="210" height="26" as="geometry" />
        </mxCell>
        <mxCell id="dqx_c1S0qKRoPGkQ0xFw-30" value="+ CorrectAnswerIndex: int" style="text;strokeColor=none;fillColor=none;align=left;verticalAlign=top;spacingLeft=4;spacingRight=4;overflow=hidden;rotatable=0;points=[[0,0.5],[1,0.5]];portConstraint=eastwest;" parent="dqx_c1S0qKRoPGkQ0xFw-9" vertex="1">
          <mxGeometry y="78" width="210" height="26" as="geometry" />
        </mxCell>
        <mxCell id="dqx_c1S0qKRoPGkQ0xFw-11" value="" style="line;strokeWidth=1;fillColor=none;align=left;verticalAlign=middle;spacingTop=-1;spacingLeft=3;spacingRight=3;rotatable=0;labelPosition=right;points=[];portConstraint=eastwest;strokeColor=inherit;" parent="dqx_c1S0qKRoPGkQ0xFw-9" vertex="1">
          <mxGeometry y="104" width="210" height="8" as="geometry" />
        </mxCell>
        <mxCell id="dqx_c1S0qKRoPGkQ0xFw-13" value="Quiz" style="swimlane;fontStyle=1;align=center;verticalAlign=top;childLayout=stackLayout;horizontal=1;startSize=26;horizontalStack=0;resizeParent=1;resizeParentMax=0;resizeLast=0;collapsible=1;marginBottom=0;" parent="WIyWlLk6GJQsqaUBKTNV-1" vertex="1">
          <mxGeometry x="390" y="284" width="220" height="216" as="geometry" />
        </mxCell>
        <mxCell id="dqx_c1S0qKRoPGkQ0xFw-14" value="+ questions: List&lt;Question&gt;" style="text;strokeColor=none;fillColor=none;align=left;verticalAlign=top;spacingLeft=4;spacingRight=4;overflow=hidden;rotatable=0;points=[[0,0.5],[1,0.5]];portConstraint=eastwest;" parent="dqx_c1S0qKRoPGkQ0xFw-13" vertex="1">
          <mxGeometry y="26" width="220" height="26" as="geometry" />
        </mxCell>
        <mxCell id="dqx_c1S0qKRoPGkQ0xFw-32" value="+ currentQuestionIndex: int" style="text;strokeColor=none;fillColor=none;align=left;verticalAlign=top;spacingLeft=4;spacingRight=4;overflow=hidden;rotatable=0;points=[[0,0.5],[1,0.5]];portConstraint=eastwest;" parent="dqx_c1S0qKRoPGkQ0xFw-13" vertex="1">
          <mxGeometry y="52" width="220" height="26" as="geometry" />
        </mxCell>
        <mxCell id="dqx_c1S0qKRoPGkQ0xFw-33" value="+ Score: int" style="text;strokeColor=none;fillColor=none;align=left;verticalAlign=top;spacingLeft=4;spacingRight=4;overflow=hidden;rotatable=0;points=[[0,0.5],[1,0.5]];portConstraint=eastwest;" parent="dqx_c1S0qKRoPGkQ0xFw-13" vertex="1">
          <mxGeometry y="78" width="220" height="26" as="geometry" />
        </mxCell>
        <mxCell id="xigRl2_YlhpQburxAAua-0" value="+ IsComplete: bool" style="text;strokeColor=none;fillColor=none;align=left;verticalAlign=top;spacingLeft=4;spacingRight=4;overflow=hidden;rotatable=0;points=[[0,0.5],[1,0.5]];portConstraint=eastwest;" vertex="1" parent="dqx_c1S0qKRoPGkQ0xFw-13">
          <mxGeometry y="104" width="220" height="26" as="geometry" />
        </mxCell>
        <mxCell id="dqx_c1S0qKRoPGkQ0xFw-15" value="" style="line;strokeWidth=1;fillColor=none;align=left;verticalAlign=middle;spacingTop=-1;spacingLeft=3;spacingRight=3;rotatable=0;labelPosition=right;points=[];portConstraint=eastwest;strokeColor=inherit;" parent="dqx_c1S0qKRoPGkQ0xFw-13" vertex="1">
          <mxGeometry y="130" width="220" height="8" as="geometry" />
        </mxCell>
        <mxCell id="dqx_c1S0qKRoPGkQ0xFw-34" value="+ NextQuestion(): void" style="text;strokeColor=none;fillColor=none;align=left;verticalAlign=top;spacingLeft=4;spacingRight=4;overflow=hidden;rotatable=0;points=[[0,0.5],[1,0.5]];portConstraint=eastwest;" parent="dqx_c1S0qKRoPGkQ0xFw-13" vertex="1">
          <mxGeometry y="138" width="220" height="26" as="geometry" />
        </mxCell>
        <mxCell id="dqx_c1S0qKRoPGkQ0xFw-35" value="+ SubmitAnswer(answerIndex): void" style="text;strokeColor=none;fillColor=none;align=left;verticalAlign=top;spacingLeft=4;spacingRight=4;overflow=hidden;rotatable=0;points=[[0,0.5],[1,0.5]];portConstraint=eastwest;" parent="dqx_c1S0qKRoPGkQ0xFw-13" vertex="1">
          <mxGeometry y="164" width="220" height="26" as="geometry" />
        </mxCell>
        <mxCell id="dqx_c1S0qKRoPGkQ0xFw-36" value="+ EndQuiz(): void" style="text;strokeColor=none;fillColor=none;align=left;verticalAlign=top;spacingLeft=4;spacingRight=4;overflow=hidden;rotatable=0;points=[[0,0.5],[1,0.5]];portConstraint=eastwest;" parent="dqx_c1S0qKRoPGkQ0xFw-13" vertex="1">
          <mxGeometry y="190" width="220" height="26" as="geometry" />
        </mxCell>
        <mxCell id="dqx_c1S0qKRoPGkQ0xFw-17" value="DataService" style="swimlane;fontStyle=1;align=center;verticalAlign=top;childLayout=stackLayout;horizontal=1;startSize=26;horizontalStack=0;resizeParent=1;resizeParentMax=0;resizeLast=0;collapsible=1;marginBottom=0;" parent="WIyWlLk6GJQsqaUBKTNV-1" vertex="1">
          <mxGeometry y="660" width="320" height="86" as="geometry" />
        </mxCell>
        <mxCell id="dqx_c1S0qKRoPGkQ0xFw-19" value="" style="line;strokeWidth=1;fillColor=none;align=left;verticalAlign=middle;spacingTop=-1;spacingLeft=3;spacingRight=3;rotatable=0;labelPosition=right;points=[];portConstraint=eastwest;strokeColor=inherit;" parent="dqx_c1S0qKRoPGkQ0xFw-17" vertex="1">
          <mxGeometry y="26" width="320" height="8" as="geometry" />
        </mxCell>
        <mxCell id="dqx_c1S0qKRoPGkQ0xFw-20" value="+ LoadQuestionsFromApiAsync(): Task&lt;List&lt;Question&gt;&gt;" style="text;strokeColor=none;fillColor=none;align=left;verticalAlign=top;spacingLeft=4;spacingRight=4;overflow=hidden;rotatable=0;points=[[0,0.5],[1,0.5]];portConstraint=eastwest;" parent="dqx_c1S0qKRoPGkQ0xFw-17" vertex="1">
          <mxGeometry y="34" width="320" height="26" as="geometry" />
        </mxCell>
        <mxCell id="dqx_c1S0qKRoPGkQ0xFw-37" value="+ LoadQuestions(): Task&lt;List&lt;Question&gt;&gt;" style="text;strokeColor=none;fillColor=none;align=left;verticalAlign=top;spacingLeft=4;spacingRight=4;overflow=hidden;rotatable=0;points=[[0,0.5],[1,0.5]];portConstraint=eastwest;" parent="dqx_c1S0qKRoPGkQ0xFw-17" vertex="1">
          <mxGeometry y="60" width="320" height="26" as="geometry" />
        </mxCell>
        <mxCell id="dqx_c1S0qKRoPGkQ0xFw-21" value="QuizViewModel" style="swimlane;fontStyle=1;align=center;verticalAlign=top;childLayout=stackLayout;horizontal=1;startSize=26;horizontalStack=0;resizeParent=1;resizeParentMax=0;resizeLast=0;collapsible=1;marginBottom=0;" parent="WIyWlLk6GJQsqaUBKTNV-1" vertex="1">
          <mxGeometry x="430" y="585" width="230" height="242" as="geometry" />
        </mxCell>
        <mxCell id="dqx_c1S0qKRoPGkQ0xFw-22" value="+ reference to Quiz" style="text;strokeColor=none;fillColor=none;align=left;verticalAlign=top;spacingLeft=4;spacingRight=4;overflow=hidden;rotatable=0;points=[[0,0.5],[1,0.5]];portConstraint=eastwest;" parent="dqx_c1S0qKRoPGkQ0xFw-21" vertex="1">
          <mxGeometry y="26" width="230" height="26" as="geometry" />
        </mxCell>
        <mxCell id="dqx_c1S0qKRoPGkQ0xFw-39" value="+ CurrentQuestionText: string" style="text;strokeColor=none;fillColor=none;align=left;verticalAlign=top;spacingLeft=4;spacingRight=4;overflow=hidden;rotatable=0;points=[[0,0.5],[1,0.5]];portConstraint=eastwest;" parent="dqx_c1S0qKRoPGkQ0xFw-21" vertex="1">
          <mxGeometry y="52" width="230" height="26" as="geometry" />
        </mxCell>
        <mxCell id="xigRl2_YlhpQburxAAua-1" value="+ CurrentQuestionAnswers: List&lt;string&gt;" style="text;strokeColor=none;fillColor=none;align=left;verticalAlign=top;spacingLeft=4;spacingRight=4;overflow=hidden;rotatable=0;points=[[0,0.5],[1,0.5]];portConstraint=eastwest;" vertex="1" parent="dqx_c1S0qKRoPGkQ0xFw-21">
          <mxGeometry y="78" width="230" height="26" as="geometry" />
        </mxCell>
        <mxCell id="dqx_c1S0qKRoPGkQ0xFw-40" value="+ Score: int" style="text;strokeColor=none;fillColor=none;align=left;verticalAlign=top;spacingLeft=4;spacingRight=4;overflow=hidden;rotatable=0;points=[[0,0.5],[1,0.5]];portConstraint=eastwest;" parent="dqx_c1S0qKRoPGkQ0xFw-21" vertex="1">
          <mxGeometry y="104" width="230" height="26" as="geometry" />
        </mxCell>
        <mxCell id="dqx_c1S0qKRoPGkQ0xFw-41" value="+ IsQuizComplete: bool" style="text;strokeColor=none;fillColor=none;align=left;verticalAlign=top;spacingLeft=4;spacingRight=4;overflow=hidden;rotatable=0;points=[[0,0.5],[1,0.5]];portConstraint=eastwest;" parent="dqx_c1S0qKRoPGkQ0xFw-21" vertex="1">
          <mxGeometry y="130" width="230" height="26" as="geometry" />
        </mxCell>
        <mxCell id="dqx_c1S0qKRoPGkQ0xFw-23" value="" style="line;strokeWidth=1;fillColor=none;align=left;verticalAlign=middle;spacingTop=-1;spacingLeft=3;spacingRight=3;rotatable=0;labelPosition=right;points=[];portConstraint=eastwest;strokeColor=inherit;" parent="dqx_c1S0qKRoPGkQ0xFw-21" vertex="1">
          <mxGeometry y="156" width="230" height="8" as="geometry" />
        </mxCell>
        <mxCell id="xigRl2_YlhpQburxAAua-3" value="+ SubmitAnswer(answerIndex): void" style="text;strokeColor=none;fillColor=none;align=left;verticalAlign=top;spacingLeft=4;spacingRight=4;overflow=hidden;rotatable=0;points=[[0,0.5],[1,0.5]];portConstraint=eastwest;" vertex="1" parent="dqx_c1S0qKRoPGkQ0xFw-21">
          <mxGeometry y="164" width="230" height="26" as="geometry" />
        </mxCell>
        <mxCell id="xigRl2_YlhpQburxAAua-2" value="+ StartQuiz(): void" style="text;strokeColor=none;fillColor=none;align=left;verticalAlign=top;spacingLeft=4;spacingRight=4;overflow=hidden;rotatable=0;points=[[0,0.5],[1,0.5]];portConstraint=eastwest;" vertex="1" parent="dqx_c1S0qKRoPGkQ0xFw-21">
          <mxGeometry y="190" width="230" height="26" as="geometry" />
        </mxCell>
        <mxCell id="dqx_c1S0qKRoPGkQ0xFw-38" value="+ UpdateQuizState(): void" style="text;strokeColor=none;fillColor=none;align=left;verticalAlign=top;spacingLeft=4;spacingRight=4;overflow=hidden;rotatable=0;points=[[0,0.5],[1,0.5]];portConstraint=eastwest;" parent="dqx_c1S0qKRoPGkQ0xFw-21" vertex="1">
          <mxGeometry y="216" width="230" height="26" as="geometry" />
        </mxCell>
        <mxCell id="xigRl2_YlhpQburxAAua-6" value="QuizWindow.xaml" style="swimlane;fontStyle=1;align=center;verticalAlign=top;childLayout=stackLayout;horizontal=1;startSize=26;horizontalStack=0;resizeParent=1;resizeParentMax=0;resizeLast=0;collapsible=1;marginBottom=0;" vertex="1" parent="WIyWlLk6GJQsqaUBKTNV-1">
          <mxGeometry x="380" y="100" width="190" height="112" as="geometry" />
        </mxCell>
        <mxCell id="xigRl2_YlhpQburxAAua-7" value="+ reference to QuizViewModel" style="text;strokeColor=none;fillColor=none;align=left;verticalAlign=top;spacingLeft=4;spacingRight=4;overflow=hidden;rotatable=0;points=[[0,0.5],[1,0.5]];portConstraint=eastwest;" vertex="1" parent="xigRl2_YlhpQburxAAua-6">
          <mxGeometry y="26" width="190" height="26" as="geometry" />
        </mxCell>
        <mxCell id="xigRl2_YlhpQburxAAua-8" value="" style="line;strokeWidth=1;fillColor=none;align=left;verticalAlign=middle;spacingTop=-1;spacingLeft=3;spacingRight=3;rotatable=0;labelPosition=right;points=[];portConstraint=eastwest;strokeColor=inherit;" vertex="1" parent="xigRl2_YlhpQburxAAua-6">
          <mxGeometry y="52" width="190" height="8" as="geometry" />
        </mxCell>
        <mxCell id="xigRl2_YlhpQburxAAua-9" value="+ SubmitAnswer_Click(): void" style="text;strokeColor=none;fillColor=none;align=left;verticalAlign=top;spacingLeft=4;spacingRight=4;overflow=hidden;rotatable=0;points=[[0,0.5],[1,0.5]];portConstraint=eastwest;" vertex="1" parent="xigRl2_YlhpQburxAAua-6">
          <mxGeometry y="60" width="190" height="26" as="geometry" />
        </mxCell>
        <mxCell id="xigRl2_YlhpQburxAAua-10" value="+ StartQuiz_Click(): void" style="text;strokeColor=none;fillColor=none;align=left;verticalAlign=top;spacingLeft=4;spacingRight=4;overflow=hidden;rotatable=0;points=[[0,0.5],[1,0.5]];portConstraint=eastwest;" vertex="1" parent="xigRl2_YlhpQburxAAua-6">
          <mxGeometry y="86" width="190" height="26" as="geometry" />
        </mxCell>
        <mxCell id="xigRl2_YlhpQburxAAua-11" style="edgeStyle=orthogonalEdgeStyle;rounded=0;orthogonalLoop=1;jettySize=auto;html=1;" edge="1" parent="WIyWlLk6GJQsqaUBKTNV-1" source="xigRl2_YlhpQburxAAua-7" target="dqx_c1S0qKRoPGkQ0xFw-21">
          <mxGeometry relative="1" as="geometry">
            <Array as="points">
              <mxPoint x="700" y="139" />
              <mxPoint x="700" y="600" />
            </Array>
          </mxGeometry>
        </mxCell>
        <mxCell id="xigRl2_YlhpQburxAAua-13" style="edgeStyle=orthogonalEdgeStyle;rounded=0;orthogonalLoop=1;jettySize=auto;html=1;entryX=0.009;entryY=0.065;entryDx=0;entryDy=0;entryPerimeter=0;" edge="1" parent="WIyWlLk6GJQsqaUBKTNV-1" source="dqx_c1S0qKRoPGkQ0xFw-22" target="dqx_c1S0qKRoPGkQ0xFw-13">
          <mxGeometry relative="1" as="geometry">
            <Array as="points">
              <mxPoint x="320" y="624" />
              <mxPoint x="320" y="298" />
            </Array>
          </mxGeometry>
        </mxCell>
        <mxCell id="xigRl2_YlhpQburxAAua-14" style="edgeStyle=orthogonalEdgeStyle;rounded=0;orthogonalLoop=1;jettySize=auto;html=1;entryX=0;entryY=0.5;entryDx=0;entryDy=0;" edge="1" parent="WIyWlLk6GJQsqaUBKTNV-1" source="dqx_c1S0qKRoPGkQ0xFw-37" target="dqx_c1S0qKRoPGkQ0xFw-14">
          <mxGeometry relative="1" as="geometry" />
        </mxCell>
        <mxCell id="xigRl2_YlhpQburxAAua-16" style="edgeStyle=orthogonalEdgeStyle;rounded=0;orthogonalLoop=1;jettySize=auto;html=1;entryX=1;entryY=0.5;entryDx=0;entryDy=0;" edge="1" parent="WIyWlLk6GJQsqaUBKTNV-1" source="dqx_c1S0qKRoPGkQ0xFw-33" target="dqx_c1S0qKRoPGkQ0xFw-40">
          <mxGeometry relative="1" as="geometry" />
        </mxCell>
        <mxCell id="xigRl2_YlhpQburxAAua-19" style="edgeStyle=orthogonalEdgeStyle;rounded=0;orthogonalLoop=1;jettySize=auto;html=1;entryX=0;entryY=0.5;entryDx=0;entryDy=0;" edge="1" parent="WIyWlLk6GJQsqaUBKTNV-1" source="dqx_c1S0qKRoPGkQ0xFw-25" target="xigRl2_YlhpQburxAAua-1">
          <mxGeometry relative="1" as="geometry" />
        </mxCell>
        <mxCell id="xigRl2_YlhpQburxAAua-20" style="edgeStyle=orthogonalEdgeStyle;rounded=0;orthogonalLoop=1;jettySize=auto;html=1;entryX=0;entryY=0.5;entryDx=0;entryDy=0;" edge="1" parent="WIyWlLk6GJQsqaUBKTNV-1" source="dqx_c1S0qKRoPGkQ0xFw-10" target="dqx_c1S0qKRoPGkQ0xFw-39">
          <mxGeometry relative="1" as="geometry">
            <Array as="points">
              <mxPoint x="300" y="409" />
              <mxPoint x="300" y="650" />
            </Array>
          </mxGeometry>
        </mxCell>
        <mxCell id="xigRl2_YlhpQburxAAua-21" style="edgeStyle=orthogonalEdgeStyle;rounded=0;orthogonalLoop=1;jettySize=auto;html=1;entryX=1;entryY=0.5;entryDx=0;entryDy=0;" edge="1" parent="WIyWlLk6GJQsqaUBKTNV-1" source="xigRl2_YlhpQburxAAua-0" target="dqx_c1S0qKRoPGkQ0xFw-41">
          <mxGeometry relative="1" as="geometry">
            <Array as="points">
              <mxPoint x="750" y="401" />
              <mxPoint x="750" y="728" />
            </Array>
          </mxGeometry>
        </mxCell>
        <mxCell id="xigRl2_YlhpQburxAAua-22" style="edgeStyle=orthogonalEdgeStyle;rounded=0;orthogonalLoop=1;jettySize=auto;html=1;entryX=1;entryY=0.5;entryDx=0;entryDy=0;" edge="1" parent="WIyWlLk6GJQsqaUBKTNV-1" source="dqx_c1S0qKRoPGkQ0xFw-35" target="xigRl2_YlhpQburxAAua-3">
          <mxGeometry relative="1" as="geometry">
            <Array as="points">
              <mxPoint x="770" y="461" />
              <mxPoint x="770" y="762" />
            </Array>
          </mxGeometry>
        </mxCell>
      </root>
    </mxGraphModel>
  </diagram>
</mxfile>
